<svg width="18" height="18" viewBox="0 0 18 18" fill="none" xmlns="http://www.w3.org/2000/svg">
  <g clip-path="url(#clip0)">
    <path d="M1.38601 0.113579C1.03453 -0.237892 0.464685 -0.237892 0.113213 0.113579C-0.238259 0.465051 -0.238259 1.0349 0.113213 1.38637L7.72682 8.99998L0.113213 16.6136C-0.238259 16.965 -0.238259 17.5349 0.113213 17.8864C0.464685 18.2378 1.03453 18.2378 1.38601 17.8864L8.99961 10.2728L16.6132 17.8864C16.9647 18.2378 17.5345 18.2378 17.886 17.8864C18.2375 17.5349 18.2375 16.965 17.886 16.6136L10.2724 8.99998L17.886 1.38637C18.2375 1.0349 18.2375 0.465051 17.886 0.113579C17.5345 -0.237892 16.9647 -0.237892 16.6132 0.113579L8.99961 7.72718L1.38601 0.113579Z" fill="black"/>
  </g>
  <defs>
    <clipPath id="clip0">
      <rect width="18" height="18" fill="white"/>
    </clipPath>
  </defs>
</svg>
