<svg width="24" height="24" viewBox="0 0 24 24" fill="none" xmlns="http://www.w3.org/2000/svg">
  <path fill-rule="evenodd" clip-rule="evenodd" d="M0.0996094 4.49998C0.0996094 4.00292 0.502553 3.59998 0.999609 3.59998H22.9996C23.4967 3.59998 23.8996 4.00292 23.8996 4.49998C23.8996 4.99703 23.4967 5.39998 22.9996 5.39998H0.999609C0.502553 5.39998 0.0996094 4.99703 0.0996094 4.49998Z" fill="black"/>
  <path fill-rule="evenodd" clip-rule="evenodd" d="M0.0996094 11.5C0.0996094 11.0029 0.502553 10.6 0.999609 10.6H22.9996C23.4967 10.6 23.8996 11.0029 23.8996 11.5C23.8996 11.997 23.4967 12.4 22.9996 12.4H0.999609C0.502553 12.4 0.0996094 11.997 0.0996094 11.5Z" fill="black"/>
  <path fill-rule="evenodd" clip-rule="evenodd" d="M0.0996094 18.5C0.0996094 18.0029 0.502553 17.6 0.999609 17.6H22.9996C23.4967 17.6 23.8996 18.0029 23.8996 18.5C23.8996 18.997 23.4967 19.4 22.9996 19.4H0.999609C0.502553 19.4 0.0996094 18.997 0.0996094 18.5Z" fill="black"/>
</svg>
